Coordinates
version=1
nRows=10
nColumns=40
inDegrees=yes

Units are S.I. units (second, meters, Newtons, ...)
Angles are in degrees.

endheader
time	pelvis_tilt	pelvis_list	pelvis_rotation	pelvis_tx	pelvis_ty	pelvis_tz	hip_flexion_r	hip_adduction_r	hip_rotation_r	knee_angle_r	knee_angle_r_beta	ankle_angle_r	subtalar_angle_r	mtp_angle_r	hip_flexion_l	hip_adduction_l	hip_rotation_l	knee_angle_l	knee_angle_l_beta	ankle_angle_l	subtalar_angle_l	mtp_angle_l	lumbar_extension	lumbar_bending	lumbar_rotation	arm_flex_r	arm_add_r	arm_rot_r	elbow_flex_r	pro_sup_r	wrist_flex_r	wrist_dev_r	arm_flex_l	arm_add_l	arm_rot_l	elbow_flex_l	pro_sup_l	wrist_flex_l	wrist_dev_l
     26.75000000	     -4.00781502	     -3.49201345	     -3.52440737	      1.07555041	      0.92290773	      0.57512106	     16.92954195	      3.71272068	     -9.40273740	     25.46923731	     25.46923731	     14.98573465	     -0.60493902	     -1.20048476	     23.50624112	    -13.76176893	      1.73980547	     63.15053640	     63.15053640	     12.09888471	    -18.11498723	     10.26273137	    -10.62904782	      3.52173627	     -0.17744532	     13.26387410	    -23.11242630	    -12.23936178	     57.77529129	     45.11917632	      0.00000000	      0.00000000	      9.73981908	     -7.73881405	     -1.31393863	     26.26593602	     45.17583733	      0.00000000	      0.00000000
     26.77107143	     -3.77193690	     -3.62188890	     -2.79458582	      1.07486934	      0.91947839	      0.57679219	     17.50437717	      3.92270150	     -9.06457072	     27.48732350	     27.48732350	     15.84868039	     -2.70615211	     -1.51557750	     25.17007886	    -14.20216629	      2.20093736	     63.55608713	     63.55608713	     12.34069658	    -18.65718529	     10.88215683	    -10.96222325	      3.49007080	      0.56760075	     15.06487590	    -22.87042635	    -12.60604259	     57.81052304	     45.14791504	      0.00000000	      0.00000000	      7.33177427	     -7.71854391	     -1.16724773	     24.98519229	     45.12636236	      0.00000000	      0.00000000
     26.79214286	     -3.39814970	     -3.85592889	     -1.94246126	      1.07424936	      0.91622608	      0.57835045	     17.78213020	      4.34327167	     -8.61495602	     29.23338108	     29.23338108	     16.76871661	     -5.13955700	     -1.08239536	     26.79952045	    -14.60930313	      2.85450386	     63.86568336	     63.86568336	     13.59145428	    -18.91944655	     14.16365174	    -11.37460424	      3.54166464	      0.58841372	     18.67878388	    -21.92334259	    -13.43304184	     54.94666451	     45.32084070	      0.00000000	      0.00000000	      4.62481514	     -7.99699856	     -0.62715243	     23.48532461	     45.05033066	      0.00000000	      0.00000000
     26.81321429	     -3.11418681	     -4.02298345	     -1.01736750	      1.07355801	      0.91278059	      0.57956187	     18.18294319	      4.61704543	     -8.43180020	     31.01399444	     31.01399444	     17.57365181	     -7.24190379	     -1.05588153	     28.41984068	    -14.93837352	      3.36742637	     63.65492086	     63.65492086	     14.11364643	    -19.15204200	     15.26954829	    -11.75426576	      3.58019339	      1.01691218	     20.98609052	    -21.61433417	    -13.71975868	     54.62668523	     45.36282963	      0.00000000	      0.00000000	      2.09755568	     -8.23947822	     -0.47210602	     22.41299055	     45.00622245	      0.00000000	      0.00000000
     26.83428571	     -2.87335375	     -4.16600222	     -0.00105285	      1.07280467	      0.90958142	      0.58035045	     18.49575505	      4.86112073	     -8.33172490	     32.51710977	     32.51710977	     18.26097259	     -9.27060427	     -0.89376558	     29.97489588	    -15.11499277	      3.85556196	     62.97388554	     62.97388554	     14.69304592	    -19.28702644	     16.38871851	    -12.06326655	      3.61869032	      1.35699600	     23.31763980	    -21.34602135	    -14.08775625	     54.12067336	     45.41293617	      0.00000000	      0.00000000	     -0.25081857	     -8.54770314	     -0.34419719	     21.43102303	     44.96160347	      0.00000000	      0.00000000
     26.85535714	     -2.55322943	     -4.33986197	      1.12440976	      1.07206201	      0.90714906	      0.58056430	     18.52148774	      5.05877036	     -8.53450665	     33.65898331	     33.65898331	     19.10246529	    -10.73650943	     -0.00379895	     31.29681771	    -15.08464516	      4.45882812	     61.80737794	     61.80737794	     15.68825597	    -19.33510500	     18.77995261	    -12.39599673	      3.73298423	      1.08653335	     27.11671659	    -20.54821747	    -14.72702565	     51.03144061	     45.58183230	      0.00000000	      0.00000000	     -2.95267676	     -8.97693056	      0.07056184	     21.39262555	     44.89640143	      0.00000000	      0.00000000
     26.87642857	     -2.35416429	     -4.42494790	      2.31334676	      1.07116299	      0.90521771	      0.58017291	     18.50865618	      5.08483660	     -8.92510334	     34.44303933	     34.44303933	     19.54364074	    -12.00442996	      0.01488631	     32.45409045	    -14.83320178	      4.91653161	     59.95862893	     59.95862893	     15.83561020	    -19.37171181	     18.88424411	    -12.67611516	      3.81854963	      1.70416142	     28.86205522	    -20.90476624	    -14.89482793	     51.64697803	     45.57783600	      0.00000000	      0.00000000	     -4.57400804	     -9.23625710	      0.07737623	     20.81678910	     44.87332292	      0.00000000	      0.00000000
     26.89750000	     -2.29991714	     -4.43857842	      3.54467861	      1.07009110	      0.90413183	      0.57923608	     18.43782778	      5.05497208	     -9.24413948	     34.78708213	     34.78708213	     19.77922255	    -13.39843119	      0.31223628	     33.45306743	    -14.30275169	      5.32743784	     57.48960981	     57.48960981	     15.79010460	    -19.35588457	     18.91986110	    -12.80711001	      3.87152431	      1.81954395	     30.87770698	    -20.81751351	    -15.08410288	     52.34960649	     45.57245513	      0.00000000	      0.00000000	     -6.21046401	     -9.53047311	      0.12492990	     20.40074252	     44.84081432	      0.00000000	      0.00000000
     26.91857143	     -2.36610609	     -4.47015014	      4.80218540	      1.06887639	      0.90387228	      0.57775265	     18.25948665	      4.96331658	     -9.77032733	     34.68689554	     34.68689554	     19.95906339	    -14.31423524	      0.85096254	     34.27920800	    -13.60225874	      5.75575689	     54.48329894	     54.48329894	     15.17703064	    -19.28172001	     18.05699132	    -12.77279387	      4.00748432	      1.55924391	     33.32430643	    -20.38329793	    -15.32613383	     52.87700952	     45.57873169	      0.00000000	      0.00000000	     -8.09985692	     -9.78199315	      0.27132521	     20.86658937	     44.78315076	      0.00000000	      0.00000000
     26.93964286	     -2.54366322	     -4.37856161	      6.00622350	      1.06757045	      0.90453072	      0.57586628	     17.97182942	      4.66001557	    -10.45199132	     34.20994584	     34.20994584	     20.05925012	    -14.72596656	      1.30388843	     34.74025115	    -12.68585358	      6.03394378	     50.82111481	     50.82111481	     13.71170405	    -19.16996614	     15.51711888	    -12.67120327	      3.94990300	      1.48488623	     35.50497899	    -20.25714442	    -15.24936407	     53.59243592	     45.56623765	      0.00000000	      0.00000000	     -9.92820232	    -10.11509166	      0.67285660	     22.38311932	     44.69390787	      0.00000000	      0.00000000
